<?xml version="1.0" encoding="UTF-8"?>
<svg version="1.1" viewBox="0 0 24 24" xmlns="http://www.w3.org/2000/svg">
<path id="dasher" d="m6 3c-0.55228 0-1 0.44772-1 1v9.416c-1.1067 0.44339-2 1.3273-2 2.584s0.8933 2.1406 2 2.584v1.416c0 0.55228 0.44772 1 1 1 0.55228 0 1-0.44772 1-1v-1.416c1.1067-0.44339 2-1.3273 2-2.584s-0.8933-2.1406-2-2.584v-9.416c0-0.55228-0.44772-1-1-1zm6 0c-0.55228 0-1 0.44772-1 1v1.416c-1.1067 0.4434-2 1.3273-2 2.584 0 1.2566 0.8933 2.1406 2 2.584v9.416c0 0.55228 0.44772 1 1 1s1-0.44772 1-1v-9.416c1.1067-0.4434 2-1.3273 2-2.584 0-1.2566-0.8933-2.1406-2-2.584v-1.416c0-0.55228-0.44772-1-1-1zm6 0c-0.55228 0-1 0.44772-1 1v9.416c-1.1067 0.44339-2 1.3273-2 2.584s0.8933 2.1406 2 2.584v1.416c0 0.55228 0.44772 1 1 1s1-0.44772 1-1v-1.416c1.1067-0.44339 2-1.3273 2-2.584s-0.8933-2.1406-2-2.584v-9.416c0-0.55228-0.44772-1-1-1zm-6 4c0.56418 0 1 0.43585 1 1s-0.43582 1-1 1-1-0.43585-1-1 0.43582-1 1-1zm-6 8c0.56415 0 1 0.43582 1 1s-0.43585 1-1 1-1-0.43582-1-1 0.43585-1 1-1zm12 0c0.56419 0 1 0.43581 1 1s-0.43581 1-1 1-1-0.43581-1-1 0.43581-1 1-1z"/>
<path id="menu" d="M4 5h16a1 1 0 0 1 0 2H4a1 1 0 1 1 0-2zm0 6h16a1 1 0 0 1 0 2H4a1 1 0 0 1 0-2zm0 6h16a1 1 0 0 1 0 2H4a1 1 0 0 1 0-2z"/>
<path id="search" d="m15.922 14.641 4.8647 4.8739a0.90254 0.90257 0 0 1-1.2816 1.2636l-4.8556-4.8558a7.2203 7.2206 0 1 1 1.2726-1.2726zm-5.704 0.99283a5.4152 5.4154 0 1 0 0-10.831 5.4152 5.4154 0 0 0 0 10.831z"/>
</svg>
