<?xml version="1.0" encoding="UTF-8"?>
<svg version="1.1" viewBox="0 0 24 24" xmlns="http://www.w3.org/2000/svg">
<path id="app" d="m6 3c-1.645 0-3 1.355-3 3v2c0 1.645 1.355 3 3 3h2c1.645 0 3-1.355 3-3v-2c0-1.645-1.355-3-3-3zm10 0c-1.645 0-3 1.355-3 3v2c0 1.645 1.355 3 3 3h2c1.645 0 3-1.355 3-3v-2c0-1.645-1.355-3-3-3zm-10 2h2c0.56413 0 1 0.43588 1 1v2c0 0.56413-0.43587 0.99999-1 0.99999h-2c-0.56413 0-0.99999-0.43586-0.99999-0.99999v-2c0-0.56413 0.43586-1 0.99999-1zm10 0h2c0.56418 0 1 0.43586 1 1v2c0 0.56415-0.43582 0.99999-1 0.99999h-2c-0.56418 0-1-0.43584-1-0.99999v-2c0-0.56415 0.43582-1 1-1zm-10 8c-1.645 0-3 1.355-3 3v2c0 1.645 1.355 3 3 3h2c1.645 0 3-1.355 3-3v-2c0-1.645-1.355-3-3-3zm11 0c-0.55228 0-1 0.44772-1 1v2h-2c-0.55228 0-1 0.44772-1 1 0 0.55229 0.44772 1 1 1h2v2c0 0.55227 0.44772 0.99999 1 0.99999s1-0.44772 1-0.99999v-2h2c0.55228 0 1-0.44772 1-1 0-0.55228-0.44772-1-1-1h-2v-2c0-0.55228-0.44772-1-1-1zm-11 2h2c0.56415 0 1 0.43582 1 1v2c0 0.56416-0.43585 0.99999-1 0.99999h-2c-0.56414 0-0.99999-0.43583-0.99999-0.99999v-2c0-0.56418 0.43585-1 0.99999-1z"/>
<path id="bolt" d="m13.336 2.058c-0.39782-0.14169-0.84175-0.018193-1.1093 0.30859l-8.9991 11c-0.53318 0.65274-0.0694 1.6319 0.77336 1.6328h5.9994v6c0.0013 0.93866 1.1781 1.3586 1.7733 0.63281l8.9991-11c0.53318-0.65274 0.069409-1.6319-0.77336-1.6328h-5.9994v-6c-2.32e-4 -0.42258-0.26602-0.79942-0.66399-0.94141zm-1.3358 3.7422v4.1992c5.5e-5 0.55226 0.44769 0.99994 0.9999 1h4.8901l-5.89 7.1992v-4.1992c-5.5e-5 -0.55226-0.44769-0.99994-0.9999-1h-4.8901z"/>
<path id="close" d="m 5.142709,4 c -0.303093,4.57e-5 -0.593757,0.1204848 -0.808053,0.3348254 -0.446208,0.4462986 -0.446208,1.1697898 0,1.6160883 l 6.049238,6.0491723 -6.049238,6.049173 c -0.446208,0.446298 -0.446208,1.169789 0,1.616088 0.446304,0.446204 1.169803,0.446204 1.616106,0 L 12,13.616176 l 6.049238,6.049171 c 0.446303,0.446202 1.169802,0.446202 1.616106,0 0.446207,-0.446299 0.446207,-1.16979 0,-1.616088 l -6.049237,-6.049173 6.049237,-6.0491723 c 0.446208,-0.4462985 0.446208,-1.1697897 0,-1.6160883 -0.446304,-0.4462033 -1.169803,-0.4462033 -1.616106,0 L 12,10.383998 5.950762,4.3348254 C 5.736466,4.1204848 5.445803,4.0000458 5.142709,4 Z"/>
<path id="code" d="m14.038 3.7776c-0.48741-0.12285-0.98125 0.17621-1.1026 0.66775l-3.6364 14.665c-0.12185 0.49142 0.17477 0.98932 0.6623 1.1117 0.48741 0.12284 0.98125-0.17622 1.1026-0.66775l3.6364-14.665c0.12184-0.49142-0.17478-0.98932-0.6623-1.1117zm-7.493 3.6395c-0.2411 3.64e-5 -0.4723 0.096628-0.64277 0.26853l-3.6364 3.6663c-0.35489 0.35796-0.35489 0.93816 0 1.2961l3.6364 3.6663c0.35501 0.35786 0.93052 0.35786 1.2855 0 0.35494-0.35792 0.35494-0.93818 0-1.2961l-2.9937-3.0183 2.9937-3.0183c0.35494-0.35793 0.35494-0.93818 0-1.2961-0.17046-0.1719-0.40167-0.26849-0.64277-0.26853zm10.267 0.26853c-0.35494 0.35793-0.35494 0.93818 0 1.2961l2.9937 3.0183-2.9937 3.0183c-0.35494 0.35793-0.35494 0.93818 0 1.2961 0.35501 0.35786 0.93052 0.35786 1.2855 0l3.6364-3.6663c0.35488-0.35795 0.35488-0.93815 0-1.2961l-3.6364-3.6663c-0.35501-0.35786-0.93052-0.35786-1.2855 0z"/>
<path id="dark" d="m8.4822 2.0772c-3.802 1.5279-6.4822 5.2539-6.4822 9.5901 0 5.6943 4.6384 10.333 10.333 10.333 4.3362 0 8.0622-2.6802 9.5901-6.4822 0.33913-0.84438-0.49969-1.6832-1.3441-1.3441-0.95131 0.38232-1.9878 0.59333-3.0796 0.59333-4.5776 0-8.2662-3.6887-8.2662-8.2662 0-1.0918 0.21104-2.1284 0.59333-3.0796 0.33913-0.84438-0.49969-1.6832-1.3441-1.3441zm-1.0353 2.9727c-0.0722 0.49296-0.28052 0.93916-0.28052 1.451 0 5.6944 4.6383 10.333 10.333 10.333 0.51189 0 0.95806-0.20829 1.451-0.28052-1.5034 2.0351-3.8838 3.3803-6.6174 3.3803-4.5775 0-8.2662-3.6887-8.2662-8.2662 0-2.7336 1.3453-5.114 3.3803-6.6174z"/>
<path id="dasher" d="m6 3c-0.55228 0-1 0.44772-1 1v9.416c-1.1067 0.44339-2 1.3273-2 2.584s0.8933 2.1406 2 2.584v1.416c0 0.55228 0.44772 1 1 1 0.55228 0 1-0.44772 1-1v-1.416c1.1067-0.44339 2-1.3273 2-2.584s-0.8933-2.1406-2-2.584v-9.416c0-0.55228-0.44772-1-1-1zm6 0c-0.55228 0-1 0.44772-1 1v1.416c-1.1067 0.4434-2 1.3273-2 2.584 0 1.2566 0.8933 2.1406 2 2.584v9.416c0 0.55228 0.44772 1 1 1s1-0.44772 1-1v-9.416c1.1067-0.4434 2-1.3273 2-2.584 0-1.2566-0.8933-2.1406-2-2.584v-1.416c0-0.55228-0.44772-1-1-1zm6 0c-0.55228 0-1 0.44772-1 1v9.416c-1.1067 0.44339-2 1.3273-2 2.584s0.8933 2.1406 2 2.584v1.416c0 0.55228 0.44772 1 1 1s1-0.44772 1-1v-1.416c1.1067-0.44339 2-1.3273 2-2.584s-0.8933-2.1406-2-2.584v-9.416c0-0.55228-0.44772-1-1-1zm-6 4c0.56418 0 1 0.43585 1 1s-0.43582 1-1 1-1-0.43585-1-1 0.43582-1 1-1zm-6 8c0.56415 0 1 0.43582 1 1s-0.43585 1-1 1-1-0.43582-1-1 0.43585-1 1-1zm12 0c0.56419 0 1 0.43581 1 1s-0.43581 1-1 1-1-0.43581-1-1 0.43581-1 1-1z"/>
<path id="embed" d="m16.75 21.5c-1.0494 0-1.9-0.85066-1.9-1.9v-0.95c0-0.52467-0.42533-0.95-0.95-0.95s-0.95 0.42533-0.95 0.95v0.95c0 1.0494-0.85066 1.9-1.9 1.9h-2.85c-1.0494 0-1.9-0.85066-1.9-1.9v-2.85h-0.95c-3.8 0-3.8-5.7 0-5.7h0.95v-2.85c0-1.0545 0.855-1.9 1.9-1.9h2.85v-0.95c0-3.8 5.7-3.8 5.7 0v0.95h2.85c1.0494 0 1.9 0.85066 1.9 1.9v2.85c0 1.0494-0.85066 1.9-1.9 1.9h-0.95c-0.52467 0-0.95 0.42533-0.95 0.95s0.42533 0.95 0.95 0.95h0.95c1.0494 0 1.9 0.85066 1.9 1.9v2.85c0 1.0494-0.85066 1.9-1.9 1.9zm2.85-1.9v-2.85h-0.95c-3.8 0-3.8-5.7 0-5.7h0.95v-2.85h-2.85c-1.0494 0-1.9-0.85066-1.9-1.9v-0.95c0-0.52467-0.42533-0.95-0.95-0.95s-0.95 0.42533-0.95 0.95v0.95c0 1.0494-0.85066 1.9-1.9 1.9h-2.85v2.85c0 1.0494-0.85066 1.9-1.9 1.9h-0.95c-0.52467 0-0.95 0.42533-0.95 0.95s0.42533 0.95 0.95 0.95h0.95c1.0494 0 1.9 0.85066 1.9 1.9v2.85h2.85v-0.95c0-3.8 5.7-3.8 5.7 0v0.95z"/>
<path id="github" d="m5.9904 2.0009c-0.22278 0.00572-0.45056 0.057678-0.45056 0.057678-0.26506 0.07338-0.48143 0.25304-0.59046 0.49027-0.50145 1.0924-0.51489 2.2966-0.18713 3.4352-0.84385 0.99231-1.3727 2.189-1.3662 3.4658v0.00165c3e-6 5.663e-4 -3e-6 0.00113 0 0.00174 8.99e-4 2.528 0.88023 4.2781 2.231 5.3386 0.96278 0.75593 2.0919 1.0981 3.2193 1.33-0.2289 0.51391-0.34894 1.0604-0.31975 1.6269-0.61042 0.09975-1.2433 0.20972-1.5897 0.13402-0.48771-0.10658-0.81047-0.3157-1.1391-0.62259-0.32866-0.30688-0.63045-0.71363-1.0101-1.1298-0.37968-0.41618-0.88326-0.87882-1.6315-1.0535-0.49872-0.11641-1.004 0.16698-1.1282 0.63276-0.12467 0.46568 0.17883 0.93749 0.67766 1.0535 0.18198 0.04248 0.37605 0.17699 0.66494 0.49366 0.2889 0.31667 0.62661 0.77849 1.1119 1.2316 0.48526 0.45311 1.1508 0.89542 2.0294 1.0874 0.54958 0.1201 1.3051-0.05147 2.0003-0.13741v1.693c0 0.4797 0.41646 0.86857 0.9302 0.86857 0.51373 0 0.93019-0.38887 0.93019-0.86857v-3.3606c1.62e-4 -0.02037-4.42e-4 -0.04074-0.0017-0.06107-0.04395-0.58347 0.17845-1.1557 0.61407-1.576 0.53312-0.51503 0.20712-1.3773-0.55412-1.4657-1.3851-0.16064-2.6928-0.48888-3.6063-1.2062-0.91355-0.71728-1.5679-1.8345-1.5679-4.012 5e-6 -0.00174 5e-6 -0.00339 0-0.00512-0.0057-0.99739 0.40258-1.958 1.1391-2.6803 0.24547-0.24068 0.32235-0.59104 0.19803-0.90246-0.26543-0.66412-0.24249-1.3707-0.06722-2.051 0.45854 0.099824 1.2301 0.35631 2.3982 1.0874 0.22364 0.14005 0.5013 0.18275 0.76123 0.11705 1.9727-0.49922 4.0518-0.49922 6.0245 0 0.25993 0.065696 0.53759 0.023001 0.76124-0.11705 1.168-0.73109 1.9396-0.98758 2.3982-1.0874 0.17527 0.68029 0.19821 1.3869-0.06722 2.051-0.12434 0.31143-0.04745 0.66181 0.19803 0.90249 0.73109 0.71705 1.1389 1.6683 1.1391 2.6583 0 2.1962-0.65662 3.3237-1.5679 4.0392-0.91127 0.71548-2.2147 1.0336-3.5954 1.1773-0.76984 0.07917-1.105 0.9507-0.56502 1.4691 0.44094 0.4247 0.66557 1.0032 0.61589 1.5929-0.0022 0.02313-0.0034 0.04634-0.0036 0.06956v3.3606c0 0.4797 0.41646 0.86857 0.9302 0.86857s0.9302-0.38887 0.9302-0.86857v-3.3606l-0.0036 0.06786c0.05074-0.6023-0.0853-1.1855-0.32702-1.732 1.1266-0.22344 2.2547-0.56022 3.2157-1.3147 1.3537-1.0629 2.231-2.823 2.231-5.3692-2.5e-4 -1.2677-0.52811-2.4552-1.3662-3.4403 0.32721-1.1382 0.31408-2.3416-0.18713-3.4336-0.10902-0.23723-0.3254-0.41688-0.59046-0.49026 0 0-0.22778-0.051953-0.45056-0.057678-0.22278-0.00572-0.51767 0.014188-0.88296 0.08991-0.64277 0.13324-1.6031 0.5552-2.7161 1.1994-2.0471-0.45759-4.17-0.45759-6.217 0-1.1131-0.64417-2.0734-1.0661-2.7161-1.1994-0.36528-0.075722-0.66018-0.095635-0.88296-0.08991z"/>
<path id="light" d="m12 2c-0.55228 0-1 0.44772-1 1v1c0 0.55228 0.44772 1 1 1s1-0.44772 1-1v-1c0-0.55228-0.44772-1-1-1zm-6.3633 2.6367c-0.2652 4.01e-5 -0.51953 0.10542-0.70703 0.29297-0.39042 0.39051-0.39042 1.0236 0 1.4141l0.70703 0.70703c0.39051 0.39042 1.0236 0.39042 1.4141 0 0.39042-0.39051 0.39042-1.0236 0-1.4141l-0.70703-0.70703c-0.18751-0.18755-0.44183-0.29293-0.70703-0.29297zm12.02 0.29297-0.70703 0.70703c-0.39042 0.39051-0.39042 1.0236 0 1.4141 0.39051 0.39042 1.0236 0.39042 1.4141 0l0.70703-0.70703c0.39042-0.39051 0.39042-1.0236 0-1.4141-0.39051-0.39042-1.0236-0.39042-1.4141 0zm-5.6562 2.0703c-2.7496 0-5 2.2504-5 5 0 2.7495 2.2504 5 5 5 2.7496 0 5-2.2504 5-5 0-2.7496-2.2505-5-5-5zm0 2c1.6686 0 3 1.3313 3 3 0 1.6686-1.3314 3-3 3-1.6687 0-3-1.3314-3-3 0-1.6687 1.3313-3 3-3zm-9 2c-0.55228 0-1 0.44772-1 1s0.44772 1 1 1h1c0.55228 0 1-0.44772 1-1s-0.44772-1-1-1zm17 0c-0.55228 0-1 0.44772-1 1s0.44772 1 1 1h1c0.55228 0 1-0.44772 1-1s-0.44772-1-1-1zm-13.656 5.6562c-0.2652 4e-5 -0.51953 0.10542-0.70703 0.29297l-0.70703 0.70703c-0.39042 0.39051-0.39042 1.0236 0 1.4141 0.39051 0.39042 1.0236 0.39042 1.4141 0l0.70703-0.70703c0.39042-0.39051 0.39042-1.0236 0-1.4141-0.1875-0.18755-0.44183-0.29293-0.70703-0.29297zm10.605 0.29297c-0.39042 0.39051-0.39042 1.0236 0 1.4141l0.70703 0.70703c0.39051 0.39042 1.0236 0.39042 1.4141 0 0.39042-0.39051 0.39042-1.0236 0-1.4141l-0.70703-0.70703c-0.39051-0.39042-1.0236-0.39042-1.4141 0zm-4.9492 2.0508c-0.55228 0-1 0.44772-1 1v1c0 0.55228 0.44772 1 1 1s1-0.44772 1-1v-1c0-0.55228-0.44772-1-1-1z"/>
<path id="menu" d="M4 5h16a1 1 0 0 1 0 2H4a1 1 0 1 1 0-2zm0 6h16a1 1 0 0 1 0 2H4a1 1 0 0 1 0-2zm0 6h16a1 1 0 0 1 0 2H4a1 1 0 0 1 0-2z"/>
<path id="query" d="m12 2c-0.13948 0-0.18625 0.00727-0.30668 0.044956-0.07731 0.024199-2.1617 1.0643-2.2522 1.1239-0.082937 0.0546-0.20873 0.18206-0.26566 0.26778-0.11368 0.1712-0.16994 0.3521-0.16994 0.55511 0 0.17928 0.03767 0.32509 0.12111 0.47888 0.09934 0.1831 0.27307 0.34564 0.46099 0.43001 0.064654 0.02902 0.17644 0.06314 0.24808 0.07623 0.041402 0.0076 0.093049 0.0098 0.18362 0.0078 0.13556-3e-3 0.19078-0.01096 0.29886-0.0469 0.03721-0.01238 0.38872-0.18471 0.86729-0.42415 0.44234-0.22132 0.80865-0.40069 0.81455-0.40069s0.37545 0.18025 0.82041 0.40265c0.79988 0.3998 0.85996 0.42841 0.98254 0.45542 0.08173 0.01801 0.26233 0.02248 0.3516 0.0078 0.43244-0.07103 0.76315-0.40516 0.83213-0.84048 0.01159-0.07314 0.0095-0.2336-0.0039-0.31078-0.03394-0.19569-0.12651-0.37566-0.26371-0.51992-0.12375-0.13011-0.07928-0.10675-1.2677-0.70169-0.73136-0.36605-1.1031-0.5479-1.1447-0.5609-0.12055-0.037686-0.16724-0.044956-0.30668-0.044956zm-6.0007 3.0003c-0.06225 0-0.12433 0.0036-0.16994 0.01173-0.14076 0.02522-0.1725 0.04017-1.2794 0.5942-1.1482 0.57467-1.1367 0.56867-1.2541 0.68607-0.14341 0.1435-0.23669 0.32332-0.27933 0.53556-0.01132 0.05636-0.01314 0.1701-0.01563 1.337-0.0018 0.83615-9.9e-4 1.3126 0.0039 1.3839 0.01881 0.27156 0.11671 0.48264 0.30668 0.66652 0.14948 0.14469 0.32299 0.23141 0.53522 0.26778 0.06624 0.01141 0.21633 0.01176 0.28519 2e-3 0.30654-0.04366 0.57577-0.22358 0.72665-0.48675 0.04385-0.07649 0.08244-0.16796 0.10157-0.24042 0.03299-0.12499 0.03696-0.18046 0.03711-0.67825v-0.46911l0.29496 0.1466c0.42234 0.21128 0.48676 0.2328 0.70711 0.2326 0.16773-1.55e-4 0.28636-0.02596 0.42778-0.09382 0.28424-0.13637 0.48194-0.38935 0.55085-0.70561 0.02083-0.09563 0.01856-0.29832-0.0039-0.39874-0.02225-0.09945-0.04575-0.16103-0.09376-0.2541-0.05079-0.09847-0.11468-0.18325-0.19729-0.26192-0.08233-0.0784-0.15792-0.12829-0.32035-0.2111-0.07033-0.03585-0.12892-0.06837-0.12892-0.07036-2e-6 -2e-3 0.06393-0.03376 0.14064-0.07233 0.07672-0.03855 0.16844-0.09062 0.20315-0.11532 0.06978-0.04968 0.16791-0.14714 0.21682-0.21305 0.18875-0.25432 0.24772-0.57664 0.16018-0.87762-0.10513-0.36143-0.41246-0.63686-0.78525-0.70366-0.04561-0.0082-0.1077-0.01173-0.16994-0.01173zm12.001 0c-0.1668 0-0.31668 0.03644-0.45904 0.11141-0.4603 0.24245-0.65722 0.78638-0.45904 1.2666 0.04918 0.11916 0.11748 0.22013 0.21682 0.32056 0.08637 0.0873 0.16421 0.1414 0.32621 0.22282 0.07672 0.03856 0.14063 0.07145 0.14064 0.07428 0 0.0028-0.0678 0.04018-0.15041 0.0821-0.17204 0.08728-0.24653 0.1374-0.33793 0.23455-0.13017 0.13837-0.21406 0.29982-0.25589 0.49256-0.01889 0.08708-0.0189 0.2983 0 0.38506 0.02806 0.1288 0.07757 0.24622 0.1465 0.35183 0.14191 0.21741 0.35907 0.3666 0.62117 0.42806 0.07003 0.01642 0.09663 0.01931 0.20706 0.01954 0.22332 4.58e-4 0.2844-0.01973 0.6954-0.22478l0.31058-0.15441v0.4652c0 0.27154 0.0035 0.49194 0.0078 0.52774 0.03732 0.31019 0.19808 0.56747 0.45904 0.73689 0.11407 0.07405 0.25576 0.12509 0.41216 0.14855 0.04902 0.0074 0.26369-0.0019 0.31644-0.01368 0.196-0.0437 0.35209-0.12806 0.48834-0.25996 0.19127-0.18515 0.28975-0.39426 0.30863-0.66652 5e-3 -0.07138 0.0057-0.54645 0.0039-1.3839-3e-3 -1.407 2e-6 -1.3099-0.04884-1.4679-0.06692-0.21658-0.21634-0.41381-0.40823-0.53753-0.02787-0.01797-0.52473-0.26939-1.1036-0.55902-0.73351-0.36697-1.0743-0.53417-1.1251-0.5512-0.10551-0.03532-0.19361-0.04887-0.31254-0.04887zm-4.0571 4.003c-0.02853 0.0013-0.05656 0.0042-0.08009 0.0078-0.16533 0.02541-0.15041 0.02001-1.0372 0.46324l-0.82432 0.41047-0.81064-0.4046c-0.4465-0.22304-0.8364-0.41404-0.86534-0.42415-0.10677-0.0373-0.1908-0.05055-0.32426-0.05082-0.13773-2.84e-4 -0.19378 0.0093-0.3184 0.05082-0.15024 0.05001-0.26607 0.12195-0.38286 0.23846-0.19423 0.19377-0.29496 0.43029-0.29496 0.7017 0 0.17929 0.03767 0.3251 0.12111 0.47888 0.08212 0.15136 0.21719 0.29047 0.36919 0.38115 0.023887 0.01425 0.37239 0.19128 0.77548 0.39288l0.73251 0.36747v0.98314c0 0.94268 0.0021 0.98814 0.01563 1.0672 0.04026 0.23559 0.16856 0.45803 0.34965 0.60397 0.14554 0.11729 0.32963 0.19679 0.50592 0.21892 0.26899 0.03376 0.5389-0.04408 0.75595-0.21892 0.18051-0.1454 0.30942-0.36846 0.34965-0.60397 0.01351-0.07908 0.01563-0.12453 0.01563-1.0672v-0.98317l0.73642-0.36942c0.40573-0.203 0.75998-0.38217 0.7872-0.39874 0.2474-0.15065 0.42023-0.41136 0.46685-0.70561 0.01159-0.07314 0.0095-0.2336-0.0039-0.31078-0.07024-0.40507-0.37668-0.72169-0.78134-0.80921-0.07134-0.01543-0.17224-0.02334-0.25784-0.01954zm-9.9836 4.5054c-0.06099 0.0022-0.12113 0.0076-0.15822 0.01564-0.1912 0.0416-0.35326 0.12759-0.49029 0.25996-0.18977 0.18332-0.28786 0.39491-0.30668 0.66652-0.0049 0.07126-0.0057 0.54771-0.0039 1.3839 0.0025 1.1669 0.0043 1.2806 0.01563 1.337 0.05568 0.27709 0.18976 0.48765 0.41411 0.64893 0.06821 0.04904 2.1414 1.0889 2.2405 1.1239 0.07361 0.02595 0.1483 0.04398 0.22659 0.05277 0.1795 0.0201 0.39543-0.02245 0.56061-0.10946 0.4226-0.22259 0.62874-0.70716 0.49616-1.163-0.0474-0.16293-0.12867-0.29743-0.25394-0.42415-0.11283-0.11414-0.1253-0.1211-0.94542-0.53165l-0.7579-0.37919-0.0019-1.0047c-0.0022-0.90183-0.0049-1.0128-0.01563-1.0653-0.08881-0.43234-0.42467-0.74982-0.85557-0.80725-0.03977-0.0053-0.1031-0.0061-0.16408-0.0039zm15.848 0c-0.02165 0-0.04342 0.0064 0 0.01564 0.04318-0.0094 0.02165-0.01566 0-0.01564zm0 0.01564c-0.42696 0.09282-0.73474 0.4218-0.79306 0.85025-0.0085 0.06275-0.0116 0.24645-0.01172 1.0457v0.96949l-0.7579 0.37919c-0.56104 0.28086-0.77398 0.39102-0.82041 0.42415-0.34016 0.24271-0.49525 0.67872-0.38286 1.0789 0.11002 0.3918 0.44968 0.67948 0.85752 0.72516 0.07128 8e-3 0.19727 0.0025 0.27933-0.01173 0.13123-0.02282 0.17257-0.0424 1.2599-0.58638 0.57892-0.28962 1.0758-0.54108 1.1036-0.55902 0.19152-0.12333 0.34135-0.32108 0.40825-0.53752 0.04884-0.15798 0.04584-0.0609 0.04884-1.4679 0.0018-0.83741 9.9e-4 -1.3125-0.0039-1.3839-0.01888-0.27226-0.11736-0.48136-0.30863-0.66652-0.13717-0.13278-0.6825-0.21796-0.87901-0.25996zm-7.8076 3.9854c-0.06549 0-0.13139 0.0056-0.18166 0.01564-0.21158 0.04217-0.3859 0.13665-0.53522 0.29124-0.13075 0.13536-0.21546 0.2945-0.26175 0.49256-0.01135 0.04845-0.01322 0.10981-0.01563 0.56683-0.0015 0.29978-4e-3 0.51211-0.0078 0.51211-0.0036 1e-6 -0.15182-0.07265-0.32816-0.16028-0.23231-0.11546-0.33777-0.16458-0.38481-0.17787-0.23479-0.06632-0.48022-0.04862-0.69735 0.04887-0.1873 0.0841-0.36179 0.24716-0.46099 0.43001-0.08343 0.15378-0.12111 0.29959-0.12111 0.47888 0 0.20301 0.05627 0.38391 0.16994 0.55511 0.05531 0.08329 0.18284 0.21358 0.26175 0.26583 0.060472 0.04005 2.1165 1.0723 2.2073 1.1083 0.05695 0.02256 0.15108 0.04803 0.21878 0.05864 0.06221 0.0098 0.27125 0.0018 0.33207-0.01173 0.12927-0.02881 0.17526-0.04926 1.256-0.59029 1.1884-0.59495 1.144-0.57158 1.2677-0.7017 0.1372-0.14426 0.22977-0.32424 0.2637-0.51992 0.0134-0.07719 0.0155-0.23765 0.0039-0.31078-0.0597-0.37676-0.31507-0.68173-0.67-0.79943-0.12784-0.04241-0.21184-0.05377-0.34965-0.04887-0.2034 0.0072-0.25776 0.02608-0.64852 0.22087-0.17035 0.08493-0.31284 0.15441-0.31644 0.15441-0.0039 0-0.0062-0.21011-0.0078-0.51211-0.0024-0.45703-0.0043-0.51839-0.01563-0.56684-0.01996-0.08539-0.05329-0.17947-0.0879-0.24824-0.14062-0.27937-0.39786-0.47353-0.70908-0.53556-0.05028-0.01002-0.11618-0.01564-0.18166-0.01564z"/>
<path id="search" d="m15.922 14.641 4.8647 4.8739a0.90254 0.90257 0 0 1-1.2816 1.2636l-4.8556-4.8558a7.2203 7.2206 0 1 1 1.2726-1.2726zm-5.704 0.99283a5.4152 5.4154 0 1 0 0-10.831 5.4152 5.4154 0 0 0 0 10.831z"/>
<path id="translate" d="m9.0004 2c-0.55225 0-0.99994 0.44772-0.99994 1v1h-4.9997c-0.55225 0-0.99994 0.44772-0.99994 1s0.44769 1 0.99994 1h8.4214c-0.49238 2.0202-1.3086 3.901-2.451 5.5664-0.63431-0.92811-1.1941-1.9077-1.6366-2.9551-0.21445-0.50933-0.80136-0.74814-1.3105-0.5332-0.5093 0.21446-0.74809 0.80141-0.53317 1.3105 0.5729 1.3561 1.3444 2.5944 2.201 3.7676-1.4533 1.6516-3.1471 3.0894-5.1364 4.0781-0.49441 0.24552-0.69634 0.84526-0.45115 1.3398 0.24553 0.49556 0.84667 0.6977 1.3417 0.45117 2.119-1.0531 3.9211-2.5771 5.4997-4.3066 0.13675 0.15105 0.24131 0.33 0.38279 0.47656 0.38398 0.39697 1.0171 0.40747 1.414 0.02344 0.3975-0.38346 0.40887-1.0166 0.02539-1.4141-0.17112-0.17728-0.29952-0.39163-0.46286-0.57618 1.5515-2.1118 2.6145-4.578 3.1873-7.2285h1.5077c0.55225 0 0.99994-0.44772 0.99994-1s-0.44769-1-0.99994-1h-4.9997v-1c0-0.55228-0.44769-1-0.99994-1zm6.9996 8c-0.37877-2.58e-5 -0.72505 0.21395-0.89448 0.55273l-4.9997 10c-0.24707 0.49403-0.04682 1.0948 0.44724 1.3418 0.494 0.24709 1.0948 0.04682 1.3417-0.44726l1.2226-2.4473h5.7653l1.2226 2.4473c0.24696 0.49409 0.84772 0.69435 1.3417 0.44726 0.49406-0.24697 0.69431-0.84777 0.44724-1.3418l-4.9997-10c-0.16943-0.33878-0.51571-0.55276-0.89448-0.55273zm0 3.2363 1.8827 3.7637h-3.7654z"/>
<path id="twitter" d="m3.0852 3 6.7453 9.9528-6.8305 8.0472h2.2637l5.5716-6.5644 4.4488 6.5644h5.7159l-6.9879-10.311 6.5256-7.6888h-2.2637l-5.2667 6.2078-4.2062-6.2078zm3.1505 1.7392h1.5523l4.175 6.0549 0.66387 0.96301 5.211 7.5563h-1.554l-4.3799-6.3521-0.05409-0.07983-0.66387-0.96301z"/>
</svg>
