<?xml version="1.0" encoding="UTF-8"?>
<svg version="1.1" viewBox="0 0 24 24" xmlns="http://www.w3.org/2000/svg">
<path id="close" d="m5.1427 4c-0.30309 4.6e-5 -0.59376 0.12048-0.80805 0.33483-0.44621 0.4463-0.44621 1.1698 0 1.6161l6.0492 6.0492-6.0492 6.0492c-0.44621 0.4463-0.44621 1.1698 0 1.6161 0.4463 0.4462 1.1698 0.4462 1.6161 0l6.0492-6.0492 6.0492 6.0492c0.4463 0.4462 1.1698 0.4462 1.6161 0 0.44621-0.4463 0.44621-1.1698 0-1.6161l-6.0492-6.0492 6.0492-6.0492c0.44621-0.4463 0.44621-1.1698 0-1.6161-0.4463-0.4462-1.1698-0.4462-1.6161 0l-6.0492 6.0492-6.0492-6.0492c-0.21429-0.21434-0.50496-0.33478-0.80805-0.33483z"/>
<path id="cog" d="m9.1362 4.951v-0.551c0-1.045 0.85915-1.9 1.9092-1.9h1.9092c1.0544 0 1.9092 0.85066 1.9092 1.9v0.551c0.65718 0.26511 1.2741 0.62002 1.8329 1.0545l0.47731-0.2755c0.91434-0.53015 2.0875-0.21909 2.6156 0.6935l0.95461 1.653c0.52622 0.90781 0.21442 2.0682-0.69687 2.5935l-0.47731 0.2755c0.09775 0.69963 0.09775 1.4094 0 2.109l0.47731 0.285c0.90558 0.525 1.2166 1.6783 0.69687 2.584l-0.95461 1.653c-0.52783 0.90688-1.6939 1.2172-2.6061 0.6935l-0.47731-0.285c-0.5606 0.44192-1.1808 0.80328-1.8424 1.0735v0.5415c0 1.0493-0.85479 1.9-1.9092 1.9h-1.9092c-1.0544 0-1.9092-0.85066-1.9092-1.9v-0.551c-0.65719-0.26511-1.2741-0.62002-1.8329-1.0545l-0.47731 0.2755c-0.91434 0.53016-2.0875 0.21909-2.6156-0.6935l-0.95462-1.653c-0.52621-0.90781-0.21442-2.0682 0.69687-2.5935l0.4773-0.2755c-0.09776-0.69963-0.09776-1.4094 0-2.109l-0.4773-0.285c-0.90558-0.525-1.2166-1.6783-0.69687-2.584l0.95462-1.653c0.52783-0.90688 1.6939-1.2172 2.6061-0.6935l0.47731 0.285c0.56059-0.44192 1.1808-0.80328 1.8424-1.0735zm-1.0692 2.907-0.51549 0.4845-1.6897-0.969-0.95462 1.653 1.6801 0.9595-0.16228 0.6935c-0.20705 0.86828-0.20705 1.7727 0 2.641l0.16228 0.6935-1.6801 0.9595 0.95462 1.653 1.6897-0.969 0.51549 0.4845c0.6486 0.61562 1.4333 1.0712 2.2911 1.33l0.68732 0.19v1.938h1.9092v-1.938l0.67777-0.19c0.86115-0.25747 1.6493-0.7131 2.3006-1.33l0.51549-0.4845 1.6897 0.969 0.95461-1.653-1.6801-0.9595 0.16228-0.6935c0.20705-0.86828 0.20705-1.7727 0-2.641l-0.16228-0.6935 1.6801-0.9595-0.95461-1.653-1.6897 0.969-0.51549-0.4845c-0.6486-0.61562-1.4333-1.0712-2.2911-1.33l-0.68732-0.19v-1.938h-1.9092v1.938l-0.67777 0.19c-0.86114 0.25748-1.6493 0.7131-2.3006 1.33zm3.933 7.942c-5.0913 0-5.0913-7.6 0-7.6 5.0913 0 5.0913 7.6 0 7.6zm0-1.9c2.5456 0 2.5456-3.8 0-3.8-2.5456 0-2.5456 3.8 0 3.8z"/>
<path id="dark" d="m8.7284 2.7718c-3.5358 1.4209-6.0284 4.8861-6.0284 8.9188 0 5.2957 4.3137 9.6095 9.6095 9.6095 4.0326 0 7.4979-2.4925 8.9188-6.0284 0.31535-0.78527-0.46479-1.5654-1.25-1.25-0.88478 0.35557-1.8487 0.5518-2.8641 0.5518-4.2571 0-7.6875-3.4305-7.6875-7.6876 0-1.0154 0.19622-1.9794 0.55175-2.8641 0.31535-0.78527-0.4647-1.5654-1.25-1.25zm-0.96279 2.7646c-0.066864 0.45845-0.2609 0.87342-0.2609 1.3495 0 5.2957 4.3137 9.6095 9.6094 9.6095 0.4761 0 0.891-0.19372 1.3495-0.26088-1.3982 1.8926-3.6119 3.1437-6.1542 3.1437-4.2572 0-7.6876-3.4305-7.6876-7.6876 0-2.5423 1.2511-4.756 3.1437-6.1542z"/>
<path id="fullscreen" d="m5.5714 14.571h-2.5714v6.4286h6.4286v-2.5714h-3.8571zm-2.5714-5.1429h2.5714v-3.8571h3.8571v-2.5714h-6.4286zm15.429 9h-3.8571v2.5714h6.4286v-6.4286h-2.5714zm-3.8571-15.429v2.5714h3.8571v3.8571h2.5714v-6.4286z"/>
<path id="fullscreen-exit" d="m3 17.143h3.8572v3.8572h2.5714v-6.4286h-6.4286zm3.8572-10.286h-3.8572v2.5714h6.4286v-6.4286h-2.5714zm7.7143 14.143h2.5714v-3.8572h3.8572v-2.5714h-6.4286zm2.5714-14.143v-3.8572h-2.5714v6.4286h6.4286v-2.5714z"/>
<path id="github" d="m6.5919 3.0009c-0.20056 0.0051-0.40558 0.05192-0.40558 0.05192-0.2386 0.06604-0.43332 0.22774-0.53151 0.44124-0.45133 0.98318-0.46341 2.0669-0.1684 3.0917-0.75956 0.89308-1.2356 1.9701-1.2298 3.1192v0.0014 0.0015c7.769e-4 2.2752 0.79232 3.8502 2.0081 4.8048 0.86665 0.68034 1.883 0.98829 2.8978 1.197-0.20605 0.46253-0.31411 0.95437-0.28785 1.4642-0.54941 0.08975-1.1191 0.18875-1.4309 0.12062-0.439-0.095907-0.72945-0.28412-1.0253-0.56031-0.29584-0.27619-0.5675-0.64227-0.90924-1.0168-0.34173-0.37456-0.795-0.79094-1.4685-0.94813-0.44894-0.10477-0.90374 0.15028-1.0156 0.56949-0.11224 0.41911 0.16101 0.84375 0.60996 0.94813 0.16381 0.03828 0.33849 0.15929 0.59858 0.44429 0.25998 0.285 0.56396 0.70064 1.0008 1.1084 0.43676 0.4078 1.0358 0.80588 1.8266 0.97866 0.49466 0.10809 1.1747-0.04627 1.8005-0.12367v1.5237c0 0.43173 0.37484 0.78171 0.83729 0.78171 0.46242 0 0.83724-0.34998 0.83724-0.78171v-3.0245c1.42e-4 -0.01837-3.41e-4 -0.03674-2e-3 -0.05495-0.0397-0.52512 0.16062-1.0401 0.55273-1.4184 0.47993-0.46353 0.18649-1.2396-0.49875-1.3191-1.2467-0.14458-2.4237-0.43999-3.246-1.0855-0.82228-0.64555-1.4113-1.651-1.4113-3.6108 9.3e-6 -0.0015 9.3e-6 -3e-3 0-0.0045-0.00568-0.89768 0.36232-1.7622 1.0253-2.4123 0.22093-0.21661 0.29017-0.53193 0.17825-0.81221-0.23889-0.5977-0.21829-1.2336-0.060823-1.8459 0.41277 0.08984 1.1073 0.32068 2.1586 0.97866 0.20129 0.12605 0.45121 0.16447 0.68517 0.10535 1.7757-0.4493 3.647-0.4493 5.4228 0 0.23399 0.05913 0.48388 0.0207 0.68516-0.10535 1.0514-0.65798 1.7459-0.88882 2.1586-0.97866 0.15773 0.61226 0.17843 1.2482-0.0608 1.8459-0.11184 0.28029-0.043 0.59563 0.17825 0.81224 0.65812 0.64534 1.0252 1.5014 1.0254 2.3925 0 1.9766-0.59107 2.9913-1.4113 3.6353-0.8203 0.64394-1.9935 0.93025-3.2363 1.0596-0.69293 0.07121-0.99471 0.85563-0.50863 1.3222 0.39694 0.38223 0.59908 0.90291 0.55438 1.4336-2e-3 0.02078-3e-3 0.04174-4e-3 0.06256v3.0245c0 0.43173 0.37488 0.78171 0.83729 0.78171 0.4624 0 0.8373-0.34998 0.8373-0.78171v-3.0245l-4e-3 0.06106c0.04576-0.54207-0.077-1.067-0.29433-1.5588 1.014-0.20109 2.0295-0.5042 2.8945-1.1833 1.2185-0.95662 2.0081-2.5407 2.0081-4.8323-4e-6 -1.141-0.47514-2.2097-1.2295-3.0963 0.29457-1.0244 0.28271-2.1075-0.16839-3.0902-0.09818-0.2135-0.29297-0.3752-0.5315-0.44124 0 0-0.20503-0.04675-0.40558-0.05192-0.20049-0.0051-0.46596 0.01277-0.79474 0.08091-0.5786 0.11992-1.443 0.49968-2.4448 1.0794-1.8426-0.41183-3.7535-0.41183-5.596 0-1.0018-0.57975-1.8661-0.95951-2.4447-1.0794-0.3288-0.068145-0.59424-0.086069-0.79479-0.080915z"/>
<path id="heart" d="m12.674 5.0238c5.0073-4.7054 12.181 2.5294 7.5154 7.5791l-7.5598 7.6327c-0.34668 0.3525-0.9118 0.3525-1.2585 0l-7.5598-7.6327c-4.6658-5.0497 2.5082-12.284 7.5155-7.5791l0.67355 0.67032zm6.2658 6.3189c3.3441-3.3725-1.6721-8.4312-5.0162-5.0587l-1.2939 1.3138c-0.34668 0.3525-0.9118 0.3525-1.2585 0l-1.2939-1.3138c-3.3441-3.3725-8.3603 1.6862-5.0162 5.0587l6.9394 6.9982z"/>
<path id="light" d="m12 2c-0.55228 0-1 0.44772-1 1v1c0 0.55228 0.44772 1 1 1s1-0.44772 1-1v-1c0-0.55228-0.44772-1-1-1zm-6.3633 2.6367c-0.2652 4e-5 -0.51953 0.10542-0.70703 0.29297-0.39043 0.39051-0.39043 1.0236 0 1.4141l0.70703 0.70703c0.39051 0.39042 1.0236 0.39042 1.4141 0 0.39042-0.39051 0.39042-1.0236 0-1.4141l-0.70703-0.70703c-0.18751-0.18754-0.44183-0.29293-0.70703-0.29297zm12.02 0.29297-0.70703 0.70703c-0.39042 0.39051-0.39042 1.0236 0 1.4141 0.39051 0.39042 1.0236 0.39042 1.4141 0l0.70703-0.70703c0.39043-0.39051 0.39043-1.0236 0-1.4141-0.3905-0.39042-1.0236-0.39042-1.4141 0zm-5.6562 2.0703c-2.7496 0-5 2.2504-5 5 0 2.7495 2.2504 5 5 5 2.7496 0 5-2.2504 5-5 0-2.7496-2.2504-5-5-5zm0 2c1.6686 0 3 1.3313 3 3 0 1.6686-1.3314 3-3 3-1.6687 0-3-1.3314-3-3 0-1.6687 1.3313-3 3-3zm-9 2c-0.55228 0-1 0.44772-1 1s0.44772 1 1 1h1c0.55228 0 1-0.44772 1-1s-0.44772-1-1-1zm17 0c-0.55228 0-1 0.44772-1 1s0.44772 1 1 1h1c0.55228 0 1-0.44772 1-1s-0.44772-1-1-1zm-13.656 5.6562c-0.2652 4e-5 -0.51953 0.10542-0.70703 0.29297l-0.70703 0.70703c-0.39043 0.39051-0.39043 1.0236 0 1.4141 0.3905 0.39042 1.0236 0.39042 1.4141 0l0.70703-0.70703c0.39042-0.39051 0.39042-1.0236 0-1.4141-0.1875-0.18755-0.44183-0.29293-0.70703-0.29297zm10.605 0.29297c-0.39042 0.39051-0.39042 1.0236 0 1.4141l0.70703 0.70703c0.39051 0.39042 1.0236 0.39042 1.4141 0 0.39042-0.39051 0.39042-1.0236 0-1.4141l-0.70703-0.70703c-0.39051-0.39042-1.0236-0.39042-1.4141 0zm-4.9492 2.0508c-0.55228 0-1 0.44772-1 1v1c0 0.55228 0.44772 1 1 1s1-0.44772 1-1v-1c0-0.55228-0.44772-1-1-1z"/>
<path id="link" d="m19.098 12.973c1.4316 2.5179-0.39541 5.6374-3.3023 5.6383h-3.7957c-5.061 0-5.061-7.5555 0-7.5555h0.94894c1.2652 0 1.2652-1.8889 0-1.8889h-0.94894c-3.1445 0-5.6936 2.5371-5.6936 5.6667 0 3.1296 2.5491 5.6667 5.6936 5.6667h3.7957c4.3742 2e-3 7.1165-4.7025 4.944-8.4811l-0.0097-0.01919c-0.65146-1.083-2.2836-0.11028-1.632 0.97279zm-14.196-1.9456c-1.4316-2.5179 0.39541-5.6374 3.3023-5.6383h3.7957c5.061 0 5.061 7.5555 0 7.5555h-0.94894c-1.2652 0-1.2652 1.8889 0 1.8889h0.94894c3.1445 0 5.6936-2.5371 5.6936-5.6667 0-3.1296-2.5491-5.6666-5.6936-5.6666h-3.7957c-4.3742-0.0019-7.1165 4.7025-4.9439 8.4811l0.0095 0.01919c0.6516 1.083 2.2838 0.11029 1.6322-0.97278z"/>
<path id="menu" d="m4.0015 4h16a1 1.1429 0 0 1 0 2.2857h-16a1 1.1429 0 1 1 0-2.2857zm0 6.8571h16a1 1.1429 0 0 1 0 2.2857h-16a1 1.1429 0 0 1 0-2.2857zm0 6.8572h16a1 1.1429 0 0 1 0 2.2857h-16a1 1.1429 0 0 1 0-2.2857z"/>
<path id="minus" d="m4 11c-0.55228 0-1 0.44772-1 1s0.44772 1 1 1h16c0.55228 0 1-0.44772 1-1s-0.44772-1-1-1z"/>
<path id="mouse" d="m10.095 2c-3.3636 0-6.0952 2.7579-6.0952 6.1538v7.6923c0 3.3959 2.7317 6.1538 6.0952 6.1538h3.8095c3.3636 0 6.0952-2.7579 6.0952-6.1538v-7.6923c0-3.3959-2.7317-6.1538-6.0952-6.1538zm0 1.5385h3.8095c2.5457 0 4.5714 2.0452 4.5714 4.6154v7.6923c0 2.5702-2.0257 4.6154-4.5714 4.6154h-3.8095c-2.5457 0-4.5714-2.0452-4.5714-4.6154v-7.6923c0-2.5702 2.0257-4.6154 4.5714-4.6154zm1.9048 2.3077c-0.42079 0-0.7619 0.3444-0.7619 0.76923v3.8462c0 0.42484 0.34112 0.76923 0.7619 0.76923s0.7619-0.3444 0.7619-0.76923v-3.8462c0-0.42483-0.34112-0.76923-0.7619-0.76923z"/>
<path id="plus" d="m12 3c-0.55228 0-1 0.44772-1 1v7h-7c-0.55228 0-1 0.44772-1 1 0 0.55228 0.44772 1 1 1h7v7c0 0.55228 0.44772 1 1 1 0.55228 0 1-0.44772 1-1v-7h7c0.55228 0 1-0.44772 1-1 0-0.55228-0.44772-1-1-1h-7v-7c0-0.55228-0.44772-1-1-1z"/>
<path id="preferences" d="m6 3c-0.55228 0-1 0.44772-1 1v9.416c-1.1067 0.44339-2 1.3273-2 2.584s0.8933 2.1406 2 2.584v1.416c0 0.55228 0.44772 1 1 1s1-0.44772 1-1v-1.416c1.1067-0.44339 2-1.3273 2-2.584s-0.8933-2.1406-2-2.584v-9.416c0-0.55228-0.44772-1-1-1zm6 0c-0.55228 0-1 0.44772-1 1v1.416c-1.1067 0.4434-2 1.3273-2 2.584 0 1.2566 0.8933 2.1406 2 2.584v9.416c0 0.55228 0.44772 1 1 1s1-0.44772 1-1v-9.416c1.1067-0.4434 2-1.3273 2-2.584 0-1.2566-0.8933-2.1406-2-2.584v-1.416c0-0.55228-0.44772-1-1-1zm6 0c-0.55228 0-1 0.44772-1 1v9.416c-1.1067 0.44339-2 1.3273-2 2.584s0.8933 2.1406 2 2.584v1.416c0 0.55228 0.44772 1 1 1s1-0.44772 1-1v-1.416c1.1067-0.44339 2-1.3273 2-2.584s-0.8933-2.1406-2-2.584v-9.416c0-0.55228-0.44772-1-1-1zm-6 4c0.56418 0 1 0.43585 1 1s-0.43582 1-1 1-1-0.43585-1-1 0.43582-1 1-1zm-6 8c0.56415 0 1 0.43582 1 1s-0.43585 1-1 1-1-0.43582-1-1 0.43585-1 1-1zm12 0c0.56419 0 1 0.43581 1 1s-0.43581 1-1 1-1-0.43581-1-1 0.43581-1 1-1z"/>
<path id="search" d="m15.922 14.641 4.8647 4.8739a0.90254 0.90257 0 0 1-1.2816 1.2636l-4.8556-4.8558a7.2203 7.2206 0 1 1 1.2726-1.2726zm-5.704 0.99283a5.4152 5.4154 0 1 0 0-10.831 5.4152 5.4154 0 0 0 0 10.831z"/>
<path id="share" d="m17.4 3c-1.9775 0-3.6 1.6225-3.6 3.6 0 0.25387 0.11634 0.46961 0.16695 0.71016l-4.7758 2.3871c-0.66116-0.741-1.5269-1.2973-2.5911-1.2973-1.9775 0-3.6 1.6224-3.6 3.6 0 1.9776 1.6225 3.6 3.6 3.6 1.0642 0 1.9299-0.55626 2.5911-1.2973l4.7758 2.3871c-0.0502 0.24054-0.16695 0.45628-0.16695 0.71016 0 1.9776 1.6225 3.6 3.6 3.6 1.9775 0 3.6-1.6224 3.6-3.6s-1.6225-3.6-3.6-3.6c-1.0642 0-1.9299 0.55629-2.5911 1.2973l-4.7758-2.3871c0.05024-0.24054 0.16695-0.45627 0.16695-0.71016s-0.11633-0.46962-0.16695-0.71016l4.7758-2.3871c0.66116 0.74097 1.5269 1.2973 2.5911 1.2973 1.9775 0 3.6-1.6225 3.6-3.6s-1.6225-3.6-3.6-3.6zm0 1.8c1.0049 0 1.8 0.79522 1.8 1.8s-0.79513 1.8-1.8 1.8c-0.7122 0-1.315-0.40607-1.6101-0.99492-0.12114-0.24175-0.1899-0.5125-0.1899-0.80508 0-1.0048 0.79513-1.8 1.8-1.8zm-10.8 5.4c0.71219 0 1.3151 0.40611 1.6101 0.99493 0.1212 0.24187 0.1899 0.5125 0.1899 0.80507s-0.0683 0.5632-0.1899 0.80507c-0.29498 0.58883-0.8979 0.99493-1.6101 0.99493-1.0048 0-1.8-0.79517-1.8-1.8s0.79517-1.8 1.8-1.8zm10.8 5.4c1.0049 0 1.8 0.79515 1.8 1.8s-0.79511 1.8-1.8 1.8-1.8-0.79515-1.8-1.8c0-0.29261 0.0683-0.56326 0.1899-0.80507 0.29507-0.58891 0.89789-0.99493 1.6101-0.99493z"/>
<path id="translate" d="m9.3003 3c-0.49703 0-0.89994 0.40294-0.89994 0.89998v0.89998h-4.4997c-0.49703 0-0.89995 0.40294-0.89995 0.89998s0.40292 0.89998 0.89995 0.89998h7.5793c-0.44314 1.8181-1.1777 3.5108-2.2059 5.0097-0.57089-0.83528-1.0747-1.7169-1.473-2.6595-0.19301-0.45839-0.72122-0.67331-1.1794-0.47987-0.45836 0.19301-0.67328 0.72126-0.47985 1.1795 0.51561 1.2204 1.21 2.3349 1.9809 3.3908-1.308 1.4864-2.8324 2.7804-4.6228 3.6702-0.44497 0.22097-0.6267 0.76072-0.40603 1.2058 0.22098 0.446 0.76201 0.62792 1.2075 0.40604 1.9071-0.9478 3.529-2.3193 4.9497-3.8759 0.12307 0.13594 0.21717 0.29699 0.34451 0.4289 0.34558 0.35728 0.91534 0.36672 1.2726 0.02107 0.35775-0.3451 0.36798-0.9149 0.02283-1.2726-0.15402-0.15955-0.26958-0.35246-0.41658-0.51855 1.3964-1.9006 2.3531-4.1201 2.8686-6.5055h1.357c0.49703 0 0.89994-0.40294 0.89994-0.89998 0-0.49705-0.40292-0.89998-0.89994-0.89998h-4.4997v-0.89996c0-0.49705-0.40292-0.89998-0.89996-0.89998zm6.2996 7.1999c-0.34089-2.3e-5 -0.65255 0.19255-0.80503 0.49745l-4.4997 8.9998c-0.22237 0.44462-0.04216 0.98532 0.40252 1.2076 0.4446 0.22238 0.98528 0.04218 1.2075-0.40252l1.1003-2.2025h5.1888l1.1003 2.2025c0.22226 0.44466 0.76294 0.6249 1.2075 0.40252 0.44466-0.22227 0.62489-0.76297 0.40252-1.2076l-4.4997-8.9998c-0.15249-0.3049-0.46414-0.49747-0.80504-0.49745zm0 2.9126 1.6944 3.3872h-3.3889z"/>
<path id="twitter" d="m3.0852 3 6.7453 9.9528-6.8305 8.0472h2.2637l5.5716-6.5644 4.4488 6.5644h5.7159l-6.9879-10.311 6.5256-7.6888h-2.2637l-5.2667 6.2078-4.2062-6.2078zm3.1505 1.7392h1.5523l4.175 6.0549 0.66387 0.96301 5.211 7.5563h-1.554l-4.3799-6.3521-0.05409-0.07983-0.66387-0.96301z"/>
</svg>