<?xml version="1.0" encoding="UTF-8"?>
<svg version="1.1" viewBox="0 0 24 24" xmlns="http://www.w3.org/2000/svg">
<path id="dark" d="m8.4822 2.0772c-3.802 1.5279-6.4822 5.2539-6.4822 9.5901 0 5.6943 4.6384 10.333 10.333 10.333 4.3362 0 8.0622-2.6802 9.5901-6.4822 0.33913-0.84438-0.49969-1.6832-1.3441-1.3441-0.95131 0.38232-1.9878 0.59333-3.0796 0.59333-4.5776 0-8.2662-3.6887-8.2662-8.2662 0-1.0918 0.21104-2.1284 0.59333-3.0796 0.33913-0.84438-0.49969-1.6832-1.3441-1.3441zm-1.0353 2.9727c-0.0722 0.49296-0.28052 0.93916-0.28052 1.451 0 5.6944 4.6383 10.333 10.333 10.333 0.51189 0 0.95806-0.20829 1.451-0.28052-1.5034 2.0351-3.8838 3.3803-6.6174 3.3803-4.5775 0-8.2662-3.6887-8.2662-8.2662 0-2.7336 1.3453-5.114 3.3803-6.6174z"/>
<path id="dasher" d="m6 3c-0.55228 0-1 0.44772-1 1v9.416c-1.1067 0.44339-2 1.3273-2 2.584s0.8933 2.1406 2 2.584v1.416c0 0.55228 0.44772 1 1 1 0.55228 0 1-0.44772 1-1v-1.416c1.1067-0.44339 2-1.3273 2-2.584s-0.8933-2.1406-2-2.584v-9.416c0-0.55228-0.44772-1-1-1zm6 0c-0.55228 0-1 0.44772-1 1v1.416c-1.1067 0.4434-2 1.3273-2 2.584 0 1.2566 0.8933 2.1406 2 2.584v9.416c0 0.55228 0.44772 1 1 1s1-0.44772 1-1v-9.416c1.1067-0.4434 2-1.3273 2-2.584 0-1.2566-0.8933-2.1406-2-2.584v-1.416c0-0.55228-0.44772-1-1-1zm6 0c-0.55228 0-1 0.44772-1 1v9.416c-1.1067 0.44339-2 1.3273-2 2.584s0.8933 2.1406 2 2.584v1.416c0 0.55228 0.44772 1 1 1s1-0.44772 1-1v-1.416c1.1067-0.44339 2-1.3273 2-2.584s-0.8933-2.1406-2-2.584v-9.416c0-0.55228-0.44772-1-1-1zm-6 4c0.56418 0 1 0.43585 1 1s-0.43582 1-1 1-1-0.43585-1-1 0.43582-1 1-1zm-6 8c0.56415 0 1 0.43582 1 1s-0.43585 1-1 1-1-0.43582-1-1 0.43585-1 1-1zm12 0c0.56419 0 1 0.43581 1 1s-0.43581 1-1 1-1-0.43581-1-1 0.43581-1 1-1z"/>
<path id="light" d="m12 2c-0.55228 0-1 0.44772-1 1v1c0 0.55228 0.44772 1 1 1s1-0.44772 1-1v-1c0-0.55228-0.44772-1-1-1zm-6.3633 2.6367c-0.2652 4.01e-5 -0.51953 0.10542-0.70703 0.29297-0.39042 0.39051-0.39042 1.0236 0 1.4141l0.70703 0.70703c0.39051 0.39042 1.0236 0.39042 1.4141 0 0.39042-0.39051 0.39042-1.0236 0-1.4141l-0.70703-0.70703c-0.18751-0.18755-0.44183-0.29293-0.70703-0.29297zm12.02 0.29297-0.70703 0.70703c-0.39042 0.39051-0.39042 1.0236 0 1.4141 0.39051 0.39042 1.0236 0.39042 1.4141 0l0.70703-0.70703c0.39042-0.39051 0.39042-1.0236 0-1.4141-0.39051-0.39042-1.0236-0.39042-1.4141 0zm-5.6562 2.0703c-2.7496 0-5 2.2504-5 5 0 2.7495 2.2504 5 5 5 2.7496 0 5-2.2504 5-5 0-2.7496-2.2505-5-5-5zm0 2c1.6686 0 3 1.3313 3 3 0 1.6686-1.3314 3-3 3-1.6687 0-3-1.3314-3-3 0-1.6687 1.3313-3 3-3zm-9 2c-0.55228 0-1 0.44772-1 1s0.44772 1 1 1h1c0.55228 0 1-0.44772 1-1s-0.44772-1-1-1zm17 0c-0.55228 0-1 0.44772-1 1s0.44772 1 1 1h1c0.55228 0 1-0.44772 1-1s-0.44772-1-1-1zm-13.656 5.6562c-0.2652 4e-5 -0.51953 0.10542-0.70703 0.29297l-0.70703 0.70703c-0.39042 0.39051-0.39042 1.0236 0 1.4141 0.39051 0.39042 1.0236 0.39042 1.4141 0l0.70703-0.70703c0.39042-0.39051 0.39042-1.0236 0-1.4141-0.1875-0.18755-0.44183-0.29293-0.70703-0.29297zm10.605 0.29297c-0.39042 0.39051-0.39042 1.0236 0 1.4141l0.70703 0.70703c0.39051 0.39042 1.0236 0.39042 1.4141 0 0.39042-0.39051 0.39042-1.0236 0-1.4141l-0.70703-0.70703c-0.39051-0.39042-1.0236-0.39042-1.4141 0zm-4.9492 2.0508c-0.55228 0-1 0.44772-1 1v1c0 0.55228 0.44772 1 1 1s1-0.44772 1-1v-1c0-0.55228-0.44772-1-1-1z"/>
<path id="menu" d="M4 5h16a1 1 0 0 1 0 2H4a1 1 0 1 1 0-2zm0 6h16a1 1 0 0 1 0 2H4a1 1 0 0 1 0-2zm0 6h16a1 1 0 0 1 0 2H4a1 1 0 0 1 0-2z"/>
<path id="search" d="m15.922 14.641 4.8647 4.8739a0.90254 0.90257 0 0 1-1.2816 1.2636l-4.8556-4.8558a7.2203 7.2206 0 1 1 1.2726-1.2726zm-5.704 0.99283a5.4152 5.4154 0 1 0 0-10.831 5.4152 5.4154 0 0 0 0 10.831z"/>
<path id="translate" d="m9.0004 2c-0.55225 0-0.99994 0.44772-0.99994 1v1h-4.9997c-0.55225 0-0.99994 0.44772-0.99994 1s0.44769 1 0.99994 1h8.4214c-0.49238 2.0202-1.3086 3.901-2.451 5.5664-0.63431-0.92811-1.1941-1.9077-1.6366-2.9551-0.21445-0.50933-0.80136-0.74814-1.3105-0.5332-0.5093 0.21446-0.74809 0.80141-0.53317 1.3105 0.5729 1.3561 1.3444 2.5944 2.201 3.7676-1.4533 1.6516-3.1471 3.0894-5.1364 4.0781-0.49441 0.24552-0.69634 0.84526-0.45115 1.3398 0.24553 0.49556 0.84667 0.6977 1.3417 0.45117 2.119-1.0531 3.9211-2.5771 5.4997-4.3066 0.13675 0.15105 0.24131 0.33 0.38279 0.47656 0.38398 0.39697 1.0171 0.40747 1.414 0.02344 0.3975-0.38346 0.40887-1.0166 0.02539-1.4141-0.17112-0.17728-0.29952-0.39163-0.46286-0.57618 1.5515-2.1118 2.6145-4.578 3.1873-7.2285h1.5077c0.55225 0 0.99994-0.44772 0.99994-1s-0.44769-1-0.99994-1h-4.9997v-1c0-0.55228-0.44769-1-0.99994-1zm6.9996 8c-0.37877-2.58e-5 -0.72505 0.21395-0.89448 0.55273l-4.9997 10c-0.24707 0.49403-0.04682 1.0948 0.44724 1.3418 0.494 0.24709 1.0948 0.04682 1.3417-0.44726l1.2226-2.4473h5.7653l1.2226 2.4473c0.24696 0.49409 0.84772 0.69435 1.3417 0.44726 0.49406-0.24697 0.69431-0.84777 0.44724-1.3418l-4.9997-10c-0.16943-0.33878-0.51571-0.55276-0.89448-0.55273zm0 3.2363 1.8827 3.7637h-3.7654z"/>
</svg>
