<?xml version="1.0" encoding="UTF-8"?>
<svg version="1.1" viewBox="0 0 5800 620" xmlns="http://www.w3.org/2000/svg">
<defs>
<linearGradient id="a" x2="5800" y1="620" gradientUnits="userSpaceOnUse">
<stop stop-color="#29d682" offset="0"/>
<stop stop-color="#29bec0" offset="1"/>
</linearGradient>
</defs>
<path d="m2374.7 0c-59.665 0-112.15 12.917-157.45 38.75-45.302 25.833-80.659 62-106.07 108.5-24.861 45.926-37.291 99.889-37.291 161.89 0 62 12.153 116.25 36.461 162.75 24.308 46.5 58.837 82.954 103.59 109.36 45.302 25.833 98.89 38.75 160.77 38.75 59.666 0 112.15-12.917 157.45-38.75 45.302-25.833 80.384-62 105.24-108.5 25.413-46.5 38.119-100.75 38.119-162.75 0-62-12.155-115.96-36.463-161.89-24.308-46.5-59.112-82.667-104.41-108.5-44.749-26.407-98.062-39.611-159.94-39.611zm-2157.6 8.6114-217.12 602.78h150.82l33.953-102.47h227.68l33.381 102.47h156.62l-219.6-602.78zm452.46 0v602.78h145.85v-602.78zm261.04 0v602.78h145.85v-213.55h94.469c1.3103 0 2.5775-0.0892 3.8829-0.0996l117.94 213.65h161.59l-140.52-239.6c11.923-5.213 23.156-11.145 33.619-17.875 23.756-15.5 42.262-35.879 55.522-61.139 13.811-25.259 20.717-55.972 20.717-92.139 0-39.611-8.839-73.769-26.518-102.47-17.126-28.704-41.434-50.805-72.924-66.305-30.938-15.5-67.953-23.25-111.04-23.25zm593.34 0v602.78h145.85v-179.11h136.73c41.987 0 78.449-8.6098 109.39-25.832 31.49-17.222 55.8-41.909 72.926-74.057 17.679-32.148 26.518-70.036 26.518-113.67 0-43.056-8.2875-80.084-24.861-111.08-16.021-31.574-39.5-55.971-70.438-73.193-30.938-17.222-68.229-25.834-111.87-25.834zm1244.4 0v602.78h145.85v-213.55h94.471c1.3104 0 2.5776-0.0892 3.8829-0.0996l117.93 213.65h161.6l-140.52-239.6c11.923-5.2129 23.156-11.145 33.619-17.875 23.756-15.5 42.262-35.879 55.522-61.139 13.812-25.259 20.717-55.972 20.717-92.139 0-39.611-8.839-73.769-26.518-102.47-17.126-28.704-41.436-50.805-72.926-66.305-30.938-15.5-67.951-23.25-111.04-23.25zm553.89 0v132.61h186.46v470.17h145.85v-470.17h185.63v-132.61zm597.48 0v602.78h143.36v-350.47l130.11 208.39h101.93l132.59-208.39v350.47h143.36v-602.78h-138.39l-187.28 300.53h-1.6581l-183.97-300.53zm936.42 0-217.12 602.78h150.82l33.953-102.47h227.68l33.381 102.47h156.62l-219.6-602.78zm452.46 0v602.78h145.85v-179.11h136.73c41.987 0 78.449-8.6098 109.39-25.832 31.49-17.222 55.798-41.909 72.924-74.057 17.679-32.148 26.518-70.036 26.518-113.67 0-43.056-8.2855-80.084-24.859-111.08-16.021-31.574-39.502-55.971-70.439-73.193-30.938-17.222-68.229-25.834-111.87-25.834zm-3638.8 127.44h105.24c29.28 0 51.656 6.3157 67.125 18.945 15.469 12.056 23.203 33.297 23.203 63.723s-7.7343 52.24-23.203 65.443c-15.469 12.63-37.845 18.945-67.125 18.945h-105.24zm3784.6 0h105.24c29.28 0 51.654 6.3157 67.123 18.945 15.469 12.056 23.203 33.297 23.203 63.723s-7.7343 52.24-23.203 65.443c-15.469 12.63-37.843 18.945-67.123 18.945h-105.24zm-4378 0.86133h111.04c30.385 0 53.037 5.7412 67.953 17.223 15.469 11.481 23.203 29.565 23.203 54.25 0 25.259-7.7343 44.492-23.203 57.695-14.916 12.63-37.292 18.943-67.125 18.943h-111.87zm1837.7 0h111.04c30.385 0 53.035 5.7412 67.951 17.223 15.469 11.481 23.205 29.565 23.205 54.25 0 25.259-7.7364 44.492-23.205 57.695-14.916 12.63-37.29 18.943-67.123 18.943h-111.87zm-539.48 3.4453c31.49 0 58.562 6.0284 81.213 18.084 22.651 11.481 40.053 29.565 52.207 54.25 12.154 24.685 18.23 56.832 18.23 96.443s-6.3521 72.047-19.059 97.307c-12.707 25.259-30.386 43.915-53.037 55.971-22.098 11.481-48.617 17.223-79.555 17.223-31.49 0-58.56-5.7412-81.211-17.223-22.651-12.056-40.053-30.426-52.207-55.111-12.154-25.259-18.23-57.694-18.23-97.305 0-40.185 6.0765-72.62 18.23-97.305 12.706-24.685 30.384-42.769 53.035-54.25 22.651-12.056 49.445-18.084 80.383-18.084zm-2076.4 25.834h2.4862l72.93 223.89h-149.6zm4639 0h2.4864l72.932 223.89h-149.6z" fill="url(#a)"/>
</svg>